PathFileType	4	(X/Y/Z)	/Users/itak/Documents/Research/Walk-IL/dataset/trc/00177_00008.trc
DataRate	CameraRate	NumFrames	NumMarkers	Units	OrigDataRate	OrigDataStartFrame	OrigNumFrames
100.000000	100.000000	4	53	mm	100.000000	514	588
Frame#	Time	RPSI			LPSI			L3			STRN			T10			C7			CLAV			RBAK			LBAK			LSHO			LUPA			LAEL			LAOL			LWTS			LWPS			LFRA			LIFD			LHPS			LHTS			RSHO			RUPA			RAEL			RAOL			RWTS			RWPS			RFRA			RIFD			RHTS			RHPS			RBHD			LFHD			RFHD			LBHD			LHIP			RHIP			RASI			LASI			LKNE			LTHI			LANK			LTIP			LTOE			LMT1			LMT5			LHEE			RKNE			RTHI			RANK			RTIP			RTOE			RMT1			RMT5			RHEE			
		X1	Y1	Z1	X2	Y2	Z2	X3	Y3	Z3	X4	Y4	Z4	X5	Y5	Z5	X6	Y6	Z6	X7	Y7	Z7	X8	Y8	Z8	X9	Y9	Z9	X10	Y10	Z10	X11	Y11	Z11	X12	Y12	Z12	X13	Y13	Z13	X14	Y14	Z14	X15	Y15	Z15	X16	Y16	Z16	X17	Y17	Z17	X18	Y18	Z18	X19	Y19	Z19	X20	Y20	Z20	X21	Y21	Z21	X22	Y22	Z22	X23	Y23	Z23	X24	Y24	Z24	X25	Y25	Z25	X26	Y26	Z26	X27	Y27	Z27	X28	Y28	Z28	X29	Y29	Z29	X30	Y30	Z30	X31	Y31	Z31	X32	Y32	Z32	X33	Y33	Z33	X34	Y34	Z34	X35	Y35	Z35	X36	Y36	Z36	X37	Y37	Z37	X38	Y38	Z38	X39	Y39	Z39	X40	Y40	Z40	X41	Y41	Z41	X42	Y42	Z42	X43	Y43	Z43	X44	Y44	Z44	X45	Y45	Z45	X46	Y46	Z46	X47	Y47	Z47	X48	Y48	Z48	X49	Y49	Z49	X50	Y50	Z50	X51	Y51	Z51	X52	Y52	Z52	X53	Y53	Z53	

515	5.14	-1243.828002929688	1069.640502929688	366.9463195800781	-1244.928466796875	1067.70263671875	242.9184722900391	-1240.99462890625	1107.165405273438	306.6241455078125	-977.3048095703125	1311.542358398438	289.3279724121094	-1269.578979492188	1260.433471679688	300.1637878417969	-1208.607299804688	1531.369140625	283.7884216308594	-1006.225463867188	1425.350952148438	279.4679260253906	-1269.394653320312	1356.758422851562	396.2638549804688	-1218.1611328125	1505.038208007812	182.8207397460938	-1144.31689453125	1490.909790039062	100.8742294311523	-1181.8349609375	1357.341186523438	30.35723114013672	-1174.881713867188	1140.575073242188	13.87201976776123	-1213.62841796875	1126.22802734375	92.64458465576172	-1070.398193359375	904.9127197265625	29.84932518005371	-1156.79541015625	887.7588500976562	-0.05707154795527458	-1167.121948242188	1030.469360351562	-1.919384360313416	-1059.113647460938	718.3046875	46.731689453125	-1137.70458984375	817.2032470703125	0.726507306098938	-1065.054443359375	826.0636596679688	8.169981002807617	-1138.50927734375	1510.983642578125	461.5504455566406	-1154.430053710938	1443.5849609375	532.2694702148438	-1153.628662109375	1151.528930664062	583.4356689453125	-1161.694091796875	1146.140991210938	484.0920104980469	-975.7962036132812	953.6610717773438	552.7657470703125	-1044.94140625	920.098876953125	598.7232055664062	-1117.50048828125	1081.353637695312	597.8936767578125	-923.9080810546875	776.396484375	516.974609375	-930.6687622070312	867.5003662109375	556.3955688476562	-998.7677001953125	843.93212890625	590.509521484375	-1136.090576171875	1693.2783203125	368.7685241699219	-1020.259155273438	1744.641357421875	190.5776824951172	-978.3433227539062	1746.726928710938	313.7961120605469	-1185.792358398438	1698.680908203125	240.4725952148438	-1148.465576171875	1000.908203125	121.5640640258789	-1088.6103515625	1023.468444824219	488.4073181152344	-1009.030395507812	1048.893676757812	431.3558349609375	-1020.526672363281	1036.18408203125	173.5693054199219	-1108.689697265625	504.1754760742188	163.3195190429688	-1112.629150390625	644.72705078125	134.1110534667969	-1180.011596679688	38.07548141479492	174.4890289306641	-1140.177368164062	275.6809997558594	156.3977661132812	-961.3072509765625	49.78913497924805	178.2869262695312	-1004.770446777344	49.82419967651367	231.7406005859375	-1073.5107421875	30.71624565124512	126.4237060546875	-1223.974609375	41.82513427734375	248.9956512451172	-1057.362670898438	523.6773071289062	480.1119079589844	-1031.930419921875	794.34326171875	503.6456604003906	-1151.551879882812	34.97607040405273	492.8338012695312	-1046.627563476562	401.0223999023438	469.3081359863281	-930.3729858398438	61.54888153076172	477.8902282714844	-977.2003173828125	46.87384414672852	428.9183349609375	-1041.178955078125	40.94277954101562	535.7692260742188	-1195.604614257812	33.87459564208984	418.3280639648438	
516	5.15	-1243.800415039062	1069.576782226562	366.9902648925781	-1244.835693359375	1067.601684570312	242.9735565185547	-1240.943359375	1107.087280273438	306.6509094238281	-977.3268432617188	1311.4755859375	289.2869567871094	-1269.543212890625	1260.38525390625	300.1561889648438	-1208.529907226562	1531.269287109375	283.5955810546875	-1006.25537109375	1425.27001953125	279.3167724609375	-1269.405029296875	1356.789916992188	396.1516723632812	-1218.16162109375	1504.852172851562	182.6090240478516	-1144.34033203125	1490.640991210938	100.6955871582031	-1182.0068359375	1357.055541992188	30.27198219299316	-1175.339721679688	1140.260131835938	14.03165245056152	-1214.090576171875	1126.059326171875	92.83026123046875	-1071.348876953125	904.4096069335938	30.17513656616211	-1157.791015625	887.402587890625	0.3361086249351501	-1167.832397460938	1030.12890625	-1.675733685493469	-1060.3994140625	717.810791015625	47.25934982299805	-1138.825927734375	816.8220825195312	1.191739082336426	-1066.151123046875	825.5450439453125	8.568027496337891	-1138.525268554688	1511.062377929688	461.3391723632812	-1154.47021484375	1443.687744140625	532.1106567382812	-1153.915771484375	1151.752807617188	583.3372192382812	-1161.928833007812	1146.296997070312	484.1239013671875	-976.8463745117188	953.0975952148438	553.0929565429688	-1046.108642578125	919.9342041015625	599.0902099609375	-1118.024536132812	1081.515380859375	597.927734375	-925.9176025390625	775.4445190429688	517.627197265625	-932.1166381835938	866.7252807617188	556.8850708007812	-1000.413818359375	843.5538330078125	591.013916015625	-1134.46240234375	1692.7587890625	369.2852478027344	-1021.727966308594	1745.034301757812	189.5243835449219	-977.840087890625	1746.897094726562	312.0557861328125	-1186.30078125	1698.468872070312	242.0711669921875	-1148.315673828125	1000.803283691406	121.6999435424805	-1088.560791015625	1023.483337402344	488.5919189453125	-1008.992919921875	1048.934326171875	431.5553283691406	-1020.318237304688	1036.14208984375	173.7028198242188	-1108.195068359375	504.1193542480469	163.5422058105469	-1112.174072265625	644.6776733398438	134.3201751708984	-1179.934936523438	38.18215560913086	174.5275421142578	-1139.779541015625	275.6347045898438	156.5770416259766	-961.1896362304688	49.51236724853516	178.458984375	-1004.664001464844	49.60359573364258	231.8814697265625	-1073.48828125	30.77996063232422	126.4743957519531	-1223.934692382812	41.84001922607422	249.0351715087891	-1057.649536132812	523.6721801757812	480.3077087402344	-1032.064453125	794.2626953125	503.8563842773438	-1151.522338867188	34.9213981628418	492.8744506835938	-1046.87109375	401.0656127929688	469.475341796875	-930.1958618164062	61.19278335571289	478.0537414550781	-977.1502075195312	46.76789093017578	429.015380859375	-1041.058959960938	40.7492561340332	535.853515625	-1195.600708007812	33.93409729003906	418.317626953125	
517	5.16	-1243.730834960938	1069.509887695312	367.0635375976562	-1244.6962890625	1067.499267578125	243.0701293945312	-1240.864868164062	1107.006103515625	306.7059631347656	-977.3346557617188	1311.415649414062	289.2667236328125	-1269.484497070312	1260.331298828125	300.1821594238281	-1208.447998046875	1531.175048828125	283.4535827636719	-1006.275573730469	1425.18798828125	279.19580078125	-1269.390014648438	1356.806884765625	396.0851440429688	-1218.1533203125	1504.6787109375	182.4485778808594	-1144.3603515625	1490.390258789062	100.5597381591797	-1182.16796875	1356.787353515625	30.2309684753418	-1175.768920898438	1139.962646484375	14.20723819732666	-1214.5283203125	1125.888061523438	93.02186584472656	-1072.177612304688	903.959228515625	30.54605674743652	-1158.647583007812	887.0647583007812	0.7509382963180542	-1168.45751953125	1029.805786132812	-1.406708240509033	-1061.49609375	717.3701171875	47.82447814941406	-1139.780883789062	816.4713745117188	1.677986860275269	-1067.087768554688	825.0841064453125	9.01054859161377	-1138.501953125	1511.1171875	461.1759643554688	-1154.49169921875	1443.773071289062	531.9959716796875	-1154.236450195312	1151.966674804688	583.2907104492188	-1162.194091796875	1146.449951171875	484.2759399414062	-978.0386352539062	952.4269409179688	553.5542602539062	-1047.437377929688	919.721923828125	599.5844116210938	-1118.608520507812	1081.656127929688	598.0447998046875	-928.1375732421875	774.3540649414062	518.4700317382812	-933.739501953125	865.8171997070312	557.53369140625	-1002.274169921875	843.1018676757812	591.67138671875	-1132.579467773438	1692.163696289062	369.9622497558594	-1023.40234375	1745.47705078125	188.4331817626953	-977.243408203125	1747.057373046875	310.1348266601562	-1186.828491210938	1698.258178710938	244.0109558105469	-1148.130249023438	1000.705383300781	121.862190246582	-1088.477905273438	1023.50341796875	488.7994384765625	-1008.828552246094	1048.99560546875	431.8050537109375	-1020.099853515625	1036.098876953125	173.8704223632812	-1107.6494140625	504.0638732910156	163.7804565429688	-1111.683715820312	644.6259765625	134.5550842285156	-1179.850463867188	38.30010223388672	174.5727386474609	-1139.3505859375	275.5816040039062	156.7714233398438	-961.0623168945312	49.20539093017578	178.6507568359375	-1004.542297363281	49.36635971069336	232.0367431640625	-1073.463256835938	30.84989547729492	126.5303115844727	-1223.890991210938	41.85854721069336	249.0805053710938	-1057.92822265625	523.669189453125	480.5240478515625	-1032.175537109375	794.186279296875	504.0977783203125	-1151.487548828125	34.85898590087891	492.9252319335938	-1047.115234375	401.1121520996094	469.65576171875	-930.022216796875	60.81385803222656	478.2304077148438	-977.0971069335938	46.65787506103516	429.137451171875	-1040.93505859375	40.54291915893555	535.950927734375	-1195.598876953125	34.00345611572266	418.3080749511719	
518	5.17	-1243.615234375	1069.4365234375	367.1678466796875	-1244.513305664062	1067.396362304688	243.2043762207031	-1240.760498046875	1106.92236328125	306.7917785644531	-977.3276977539062	1311.362426757812	289.2658386230469	-1269.404296875	1260.27099609375	300.2405395507812	-1208.368896484375	1531.090698242188	283.3571166992188	-1006.284606933594	1425.106323242188	279.1039428710938	-1269.348388671875	1356.808715820312	396.0625305175781	-1218.133666992188	1504.520263671875	182.3442840576172	-1144.37890625	1490.16259765625	100.4649124145508	-1182.316528320312	1356.541015625	30.23573112487793	-1176.166625976562	1139.688110351562	14.40158748626709	-1214.935913085938	1125.722290039062	93.22474670410156	-1072.860107421875	903.5711059570312	30.95752716064453	-1159.365234375	886.752197265625	1.185482978820801	-1168.998291015625	1029.507690429688	-1.113058686256409	-1062.410278320312	716.986083984375	48.42061233520508	-1140.5751953125	816.154541015625	2.181414127349854	-1067.86962890625	824.6819458007812	9.492199897766113	-1138.436767578125	1511.14697265625	461.063232421875	-1154.488525390625	1443.839111328125	531.9269409179688	-1154.582153320312	1152.166870117188	583.299072265625	-1162.483764648438	1146.601196289062	484.5487365722656	-979.36376953125	951.6550903320312	554.1465454101562	-1048.91943359375	919.46337890625	600.2039794921875	-1119.2470703125	1081.774658203125	598.2440185546875	-930.541748046875	773.1434326171875	519.4965209960938	-935.5347900390625	864.7845458984375	558.3396606445312	-1004.333374023438	842.5809326171875	592.4777221679688	-1130.452392578125	1691.504760742188	370.776123046875	-1025.26806640625	1745.957641601562	187.3193969726562	-976.5672607421875	1747.197875976562	308.043212890625	-1187.354370117188	1698.052124023438	246.2626037597656	-1147.9091796875	1000.616882324219	122.0497665405273	-1088.358642578125	1023.525756835938	489.0308227539062	-1008.519653320312	1049.081420898438	432.1044311523438	-1019.86767578125	1036.059814453125	174.0753936767578	-1107.064453125	504.0100708007812	164.0300598144531	-1111.171142578125	644.5728759765625	134.8064880371094	-1179.758178710938	38.42779922485352	174.6241149902344	-1138.903930664062	275.5225219726562	156.9737243652344	-960.9281616210938	48.87021636962891	178.8612365722656	-1004.4052734375	49.11262130737305	232.2101745605469	-1073.434936523438	30.92609786987305	126.5921325683594	-1223.842895507812	41.87961578369141	249.1325531005859	-1058.199340820312	523.6666259765625	480.7535400390625	-1032.25927734375	794.1173095703125	504.3648986816406	-1151.447021484375	34.79185104370117	492.984375	-1047.356201171875	401.1596374511719	469.8443908691406	-929.85009765625	60.40781021118164	478.4147033691406	-977.0380249023438	46.54101943969727	429.2821960449219	-1040.815185546875	40.32487487792969	536.0607299804688	-1195.595947265625	34.08169174194336	418.3008422851562	
